<svg width="40" height="40" viewBox="0 0 40 40" fill="none" xmlns="http://www.w3.org/2000/svg">
<path d="M15.0003 16.6667C16.8413 16.6667 18.3337 15.1743 18.3337 13.3333C18.3337 11.4924 16.8413 10 15.0003 10C13.1594 10 11.667 11.4924 11.667 13.3333C11.667 15.1743 13.1594 16.6667 15.0003 16.6667Z" stroke="#AFB0B4" stroke-width="1.5" stroke-linecap="round" stroke-linejoin="round"/>
<path d="M19.9997 3.3335H14.9997C6.66634 3.3335 3.33301 6.66683 3.33301 15.0002V25.0002C3.33301 33.3335 6.66634 36.6668 14.9997 36.6668H24.9997C33.333 36.6668 36.6663 33.3335 36.6663 25.0002V18.3335" stroke="#AFB0B4" stroke-width="1.5" stroke-linecap="round" stroke-linejoin="round"/>
<path d="M26.8664 8.51666C26.3164 6.78333 26.9664 4.63333 28.7664 4.05C29.7164 3.75 30.8998 4 31.5664 4.91666C32.1998 3.96666 33.4164 3.73333 34.3664 4.05C36.1831 4.63333 36.8331 6.78333 36.2831 8.51666C35.4164 11.25 32.4164 12.6833 31.5831 12.6833C30.7331 12.6833 27.7498 11.2833 26.8664 8.51666Z" stroke="#AFB0B4" stroke-width="1.5" stroke-linecap="round" stroke-linejoin="round"/>
<path d="M4.4502 31.5831L12.6669 26.0664C13.9835 25.1831 15.8835 25.2831 17.0669 26.2998L17.6169 26.7831C18.9169 27.8998 21.0169 27.8998 22.3169 26.7831L29.2502 20.8331C30.5502 19.7164 32.6502 19.7164 33.9502 20.8331L36.6669 23.1664" stroke="#AFB0B4" stroke-width="1.5" stroke-linecap="round" stroke-linejoin="round"/>
</svg>
